<svg t="1732258335872" class="icon" viewBox="0 0 1024 1024" version="1.1"
    xmlns="http://www.w3.org/2000/svg" p-id="16432" width="200" height="200">
    <path
        d="M914.285714 768V290.011429q0-31.451429-22.838857-53.101715l-151.716571-143.725714Q718.573714 73.142857 689.444571 73.142857H292.571429q-37.174857 0-71.186286 14.390857-32.822857 13.878857-58.112 39.168t-39.168 58.112Q109.714286 218.825143 109.714286 256v512q0 37.174857 14.390857 71.186286 13.878857 32.822857 39.168 58.112t58.112 39.168Q255.396571 950.857143 292.571429 950.857143h438.857142q37.174857 0 71.186286-14.390857 32.822857-13.878857 58.112-39.168t39.168-58.112Q914.285714 805.174857 914.285714 768zM292.571429 512v365.714286q-45.44 0-77.586286-32.128Q182.857143 813.44 182.857143 768V256q0-45.44 32.128-77.586286Q247.131429 146.285714 292.571429 146.285714h396.854857L841.142857 290.011429V768q0 45.44-32.128 77.586286Q776.868571 877.714286 731.428571 877.714286V512q0-30.299429-21.430857-51.712Q688.585143 438.857143 658.285714 438.857143H365.714286q-30.299429 0-51.712 21.430857Q292.571429 481.700571 292.571429 512z m0-256q-1.792 0-3.584 0.182857t-3.547429 0.512q-1.773714 0.365714-3.474286 0.877714-1.737143 0.530286-3.382857 1.206858-1.664 0.694857-3.254857 1.536-1.572571 0.841143-3.072 1.846857-1.499429 1.005714-2.889143 2.139428-1.389714 1.133714-2.651428 2.413715-1.28 1.28-2.413715 2.651428-1.133714 1.389714-2.139428 2.889143-1.005714 1.499429-1.828572 3.072-0.859429 1.590857-1.554285 3.254857-0.676571 1.645714-1.206858 3.364572-0.512 1.737143-0.877714 3.474285-0.347429 1.773714-0.512 3.565715-0.182857 1.792-0.182857 3.584t0.182857 3.584q0.182857 1.792 0.512 3.547428 0.365714 1.755429 0.877714 3.474286 0.530286 1.737143 1.206858 3.382857 0.694857 1.664 1.536 3.254857 0.841143 1.572571 1.846857 3.072 1.005714 1.499429 2.139428 2.889143 1.133714 1.389714 2.413715 2.651429 1.28 1.28 2.651428 2.413714 1.389714 1.133714 2.889143 2.139428 1.499429 1.005714 3.072 1.828572 1.590857 0.859429 3.254857 1.554286 1.645714 0.676571 3.364572 1.206857 1.718857 0.512 3.474285 0.877714 1.773714 0.347429 3.565715 0.512 1.792 0.182857 3.584 0.182857h182.857142q1.792 0 3.584-0.182857t3.547429-0.512q1.755429-0.365714 3.474286-0.877714 1.737143-0.530286 3.382857-1.206857 1.664-0.694857 3.254857-1.536 1.572571-0.841143 3.072-1.846858 1.499429-1.005714 2.889143-2.139428 1.389714-1.133714 2.651428-2.413714 1.28-1.28 2.413715-2.651429 1.133714-1.389714 2.139428-2.889143 1.005714-1.499429 1.828572-3.072 0.859429-1.590857 1.554285-3.254857 0.676571-1.645714 1.206858-3.364571 0.512-1.737143 0.877714-3.474286 0.347429-1.773714 0.512-3.565714 0.182857-1.792 0.182857-3.584t-0.182857-3.584q-0.182857-1.792-0.512-3.547429-0.365714-1.755429-0.877714-3.474286-0.530286-1.737143-1.206858-3.382857-0.694857-1.664-1.536-3.254857-0.841143-1.572571-1.846857-3.072-1.005714-1.499429-2.139428-2.889143-1.133714-1.389714-2.413715-2.651428-1.28-1.28-2.651428-2.413715-1.389714-1.133714-2.889143-2.139428-1.499429-0.987429-3.072-1.828572-1.590857-0.859429-3.254857-1.554285-1.645714-0.676571-3.364572-1.206858-1.737143-0.512-3.474285-0.877714-1.773714-0.347429-3.565715-0.512Q477.220571 256 475.428571 256H292.571429z m365.714285 621.714286H365.714286V512h292.571428v365.714286z"
        fill="#4A4A4A" p-id="16433"></path>
</svg>